PathFileType	4	(X/Y/Z)	C:/Users/beibeiliu/ov580/test_trc/capture2\sequence.9_training_dense_left.trc
DataRate	CameraRate	NumFrames	NumMarkers	Units	OrigDataRate	OrigDataStartFrame	OrigNumFrames
120	120	14	19	mm	120	1	384
Frame#	Time	ThumbCMC			ThumbMCP			ThumbIP			ThumbTip			IndexMCP			IndexPIP			IndexTip			MiddleMCP			MiddlePIP			MiddleTip			RingMCP			RingPIP			RingTip			PinkyMCP			PinkyPIP			PinkyTip			BackHand1			BackHand2			BackHand3	
		X0	Y0	Z0	X1	Y1	Z1	X2	Y2	Z2	X3	Y3	Z3	X4	Y4	Z4	X5	Y5	Z5	X6	Y6	Z6	X7	Y7	Z7	X8	Y8	Z8	X9	Y9	Z9	X10	Y10	Z10	X11	Y11	Z11	X12	Y12	Z12	X13	Y13	Z13	X14	Y14	Z14	X15	Y15	Z15	X16	Y16	Z16	X17	Y17	Z17	X18	Y18	Z18	
0	0	-99.271	31.6267	-46.8126	-83.0321	14.0403	-58.2263	-60.0802	7.09223	-71.905	-41.5189	-0.192819	-85.6436	-106.602	33.3775	-121.917	-96.9665	28.2944	-143.174	-89.8517	28.1646	-172.758	-128.633	34.9248	-131.524	-127.339	31.5015	-156.92	-126.58	27.8648	-185.935	-148.783	31.0478	-130.148	-150.67	28.9371	-149.369	-152.129	27.6376	-176.219	-175.13	26.164	-116.934	-178.842	23.0848	-133.796	-182.46	28.2894	-158.553	-155.402	47.8384	-83.6402	-158.724	55.8579	-50.0674	-126.226	53.1727	-66.368	
1	0.00833333	-105.226	29.1027	-45.5698	-86.7763	14.2429	-57.036	-69.6925	6.90321	-72.8228	-49.289	-0.887892	-88.371	-107.966	30.7391	-120.063	-99.6393	26.8088	-145.437	-94.9761	24.1309	-172.167	-127.271	32.0434	-132.156	-126.333	28.9888	-152.695	-126.419	25.356	-184.389	-153.386	29.6542	-128.229	-149.877	26.6437	-148.635	-151.594	28.5864	-180.026	-173.326	24.8686	-113.178	-181.37	24.4681	-138.365	-187.24	31.5016	-155.782	-158.55	46.2202	-80.8495	-159.607	56.4103	-54.2226	-126.767	50.0858	-66.6012	
2	0.0166667	-102.914	21.7576	-43.4256	-86.0029	9.51593	-56.3486	-62.222	3.61698	-76.6123	-48.4408	-0.426444	-85.3257	-100.625	29.6063	-122.811	-99.0226	26.5154	-143.746	-90.8398	24.7616	-167.769	-129.132	34.5586	-128.923	-126.766	29.2898	-153.312	-124.732	25.675	-181.628	-147.213	32.2538	-125.329	-148.888	27.0923	-153.017	-151.311	25.5764	-178.98	-174.657	28.6235	-115.444	-181.165	22.2829	-135.668	-185.99	24.37	-156.783	-155.786	49.0082	-77.1178	-154.386	51.593	-48.1653	-124.838	46.3807	-59.909	
3	0.025	-98.5455	23.1776	-45.9767	-84.1553	10.5086	-57.5994	-63.6133	4.37181	-74.2516	-47.7066	-0.224746	-82.7418	-104.207	32.4526	-121.578	-94.9206	27.5003	-144.987	-97.3231	24.9465	-166.772	-128.347	36.0499	-125.521	-128.225	30.3043	-153.821	-128.91	25.3325	-180.822	-147.957	32.667	-126.149	-151.221	27.6059	-149.61	-150.928	25.6609	-171.718	-170.925	29.4853	-111.321	-177.41	25.8922	-134.685	-186.525	28.0607	-155.989	-155.596	47.4971	-76.8565	-159.637	51.0787	-46.5872	-124.463	47.3833	-60.1464	
4	0.0333333	-104.101	22.9377	-43.4202	-82.6217	9.97263	-58.7029	-61.8323	3.49239	-71.6741	-44.9307	-1.66725	-82.5182	-102.503	32.38	-118.277	-97.8119	27.7582	-140.185	-92.4483	25.8594	-165.097	-125.838	36.0287	-131.343	-125.491	29.0335	-155.839	-126.255	25.9797	-179.258	-153.095	32.0353	-126.205	-149.68	27.5169	-151.031	-152.262	24.8812	-176.613	-176.734	28.3514	-114.736	-175.871	23.3948	-133.639	-185.989	26.4392	-156.583	-156.958	49.3203	-76.7173	-154.536	50.9911	-47.8145	-126.051	46.4815	-60.5626	
5	0.0416667	-104.386	21.5124	-44.7174	-87.4539	8.76653	-57.361	-65.7699	3.81593	-74.4293	-46.9402	-1.07931	-83.2357	-101.947	32.1715	-113.861	-99.8399	26.831	-141.909	-93.5699	24.2913	-162.448	-129.969	35.1605	-127.829	-126.28	30.0322	-149.998	-129.053	26.5146	-177.624	-153.805	32.4608	-123.722	-153.484	28.1328	-148.596	-155.004	26.1729	-171.243	-174.41	29.5575	-111.961	-176.492	24.6423	-129.06	-187.529	27.4402	-152.665	-154.235	48.406	-70.4517	-158.043	50.1049	-43.5779	-123.516	46.135	-55.7931	
6	0.05	-100.955	22.9395	-44.1806	-83.5308	9.86693	-57.5671	-67.7936	3.32587	-71.7464	-48.9421	0.27559	-83.449	-104.564	33.2806	-120.04	-97.1645	27.7519	-137.391	-95.6381	26.8838	-163.523	-130.285	36.6228	-128.576	-125.903	31.2862	-148.208	-126.409	27.6973	-179.735	-148.634	33.3864	-121.24	-151.708	28.4288	-145.521	-150.04	27.3411	-174.704	-175.833	29.8135	-112.413	-178.352	24.7937	-134.581	-185.486	27.7361	-154.77	-152.702	47.4134	-70.0168	-158.62	51.5301	-42.0109	-125.778	49.1394	-55.0845	
7	0.0583333	-102.82	26.7518	-40.7746	-87.1808	11.5603	-55.8005	-64.8545	6.15272	-74.4442	-48.1851	1.64312	-81.7626	-104.771	33.1999	-119.414	-97.2818	27.8275	-143.921	-99.1522	27.3238	-165.875	-127.924	34.915	-129.535	-126.047	30.5792	-151.154	-121.751	26.8053	-183.943	-148.098	32.7188	-123.706	-154.07	28.6854	-148.861	-153.07	26.3	-173.863	-175.233	29.5675	-115.374	-177.726	24.9558	-132.72	-186.192	27.2457	-159.406	-157.951	47.8059	-74.6945	-158.733	54.2603	-48.9335	-122.931	51.4774	-59.997	
8	0.0666667	-102.275	25.9812	-43.77	-86.1088	10.974	-57.8295	-67.7358	4.7457	-72.6002	-47.4672	-1.05391	-87.3037	-103.273	32.1292	-117.512	-95.4067	26.1082	-144.184	-88.9175	23.0214	-168.418	-127.155	35.6129	-126.521	-127.636	30.3112	-155.255	-123.923	25.9333	-181.768	-149.041	31.4097	-126.419	-151.961	26.9575	-147.779	-147.738	24.725	-175.743	-174.425	28.9737	-111.844	-175.588	23.9902	-132.087	-183.792	26.7342	-157.743	-154.895	47.566	-76.3242	-159.398	54.4855	-46.161	-124.848	49.7557	-59.1846	
9	0.075	-105.265	24.8868	-45.0417	-81.814	10.7887	-58.2628	-63.5427	5.26664	-72.3806	-49.9903	-1.19296	-86.185	-103.072	32.6529	-121.066	-99.6618	28.0841	-142.801	-93.858	25.7027	-169.177	-126.521	36.1792	-131.002	-124.218	31.2194	-155.014	-123.429	25.7877	-182.535	-147.152	31.6822	-129.624	-154.253	28.0015	-148.669	-151.084	25.5004	-176.619	-171.37	27.6024	-113.559	-178.698	23.8323	-137.165	-184.244	26.9066	-159.056	-159.646	46.3506	-77.3994	-160.738	50.9509	-51.1707	-125.989	48.4325	-59.6062	
10	0.0833333	-99.7766	24.9102	-50.4122	-82.3156	9.96472	-61.3101	-62.0882	2.6763	-76.293	-43.9007	-3.36562	-89.0287	-104.619	30.8121	-125.402	-96.4877	27.2822	-146.856	-94.3907	26.1473	-175.288	-126.853	33.4015	-135.92	-125.387	28.5746	-156.643	-128.062	26.4272	-185.564	-152.781	30.5354	-130.38	-153.133	27.2713	-151.19	-150.333	25.9435	-180.182	-170.49	26.2557	-116.241	-176.988	21.7109	-137.621	-183.505	23.4358	-159.412	-156.15	47.4478	-80.2843	-155.517	52.1858	-55.4269	-123.802	48.9443	-65.5946	
11	0.0916667	-105.682	22.7859	-45.9131	-81.4797	9.80432	-56.2567	-61.4803	4.00467	-71.4847	-47.7712	-2.18831	-86.353	-103.224	30.803	-124.061	-96.18	25.7415	-146.682	-94.6798	25.2031	-168.918	-128.154	34.828	-131.245	-128.255	30.0538	-157.165	-126.811	26.1237	-187.191	-152.657	31.4665	-127.241	-151.193	26.7472	-149.25	-154.104	25.9446	-175.586	-170.315	27.3274	-120.938	-175.382	22.0312	-135.271	-186.377	25.7457	-160.374	-157.487	48.5175	-79.8139	-160.584	51.4706	-50.8423	-123.34	45.706	-63.2977	
12	0.1	-105.936	23.7716	-47.052	-84.4318	11.5121	-56.0965	-63.5349	2.83796	-73.9324	-49.9852	-3.05395	-87.7412	-102.359	29.5231	-122.248	-95.5625	26.123	-144.602	-96.1537	24.9445	-167.179	-124.357	31.2139	-131.999	-126.06	27.0584	-157.33	-126.663	25.4031	-182.383	-152.438	30.8519	-128.806	-148.877	25.9146	-152.258	-152.361	24.9373	-177.141	-172.955	27.4319	-116.95	-176.561	22.49	-134.99	-183.651	27.6997	-161.72	-151.338	44.8654	-81.0697	-157.185	50.8959	-49.153	-124.803	43.5038	-60.4364	
13	0.108333	-102.719	21.9866	-47.3587	-80.6265	8.94907	-60.9533	-61.0801	2.3247	-77.4016	-44.9274	-3.91391	-88.1783	-107.452	26.8962	-122.786	-98.4598	24.1446	-144.976	-94.1954	22.1708	-173.588	-127.19	32.4945	-135.162	-125.711	27.697	-159.952	-126.105	23.4994	-185.038	-150.32	27.897	-131.243	-151.671	23.7993	-149.505	-151.177	22.817	-176.275	-170.697	25.701	-120.463	-178.786	20.7406	-139.891	-182.592	24.7187	-161.131	-152.323	43.6506	-82.9641	-153.795	53.3342	-54.23	-122.585	46.1828	-63.2185	
